<svg width="160" height="160" viewBox="0 0 160 160" version="1.1" xmlns="http://www.w3.org/2000/svg" xmlns:xlink="http://www.w3.org/1999/xlink">
<g id="Canvas" transform="translate(-10813 -1780)">
<clipPath id="clip-0" clip-rule="evenodd">
<path d="M 10813 1780L 10973 1780L 10973 1940L 10813 1940L 10813 1780Z" fill="#FFFFFF"/>
</clipPath>
<g id="Frame 3" clip-path="url(#clip-0)">
<path d="M 10813 1780L 10973 1780L 10973 1940L 10813 1940L 10813 1780Z" fill="#FFFFFF"/>
<g id="Rectangle 2">
<use xlink:href="#path0_fill" transform="translate(10813 1780)" fill="#E0E0E0"/>
</g>
<g id="Vector">
<use xlink:href="#path1_fill" transform="translate(10852 1810)" fill="#000000" fill-opacity="0.1"/>
</g>
</g>
</g>
<defs>
<path id="path0_fill" d="M 0 0L 160 0L 160 160L 0 160L 0 0Z"/>
<path id="path1_fill" fill-rule="evenodd" d="M 41.0006 -2.63836e-11C 27.7745 9.65629 14.3602 17.2824 -1.79303e-11 22.0488C 0.560464 36.3968 2.17476 49.8418 5.8796 61.5572C 11.5158 79.3777 23.9513 88.3121 41.0007 100C 58.0487 88.3122 70.4841 79.3776 76.1204 61.5572C 79.8266 49.8418 81.4409 36.3967 82 22.0488C 67.6411 17.2823 54.2268 9.65624 41.0007 -2.63836e-11L 41.0006 -2.63836e-11ZM 41.0006 94.5104C 27.8626 85.0903 18.1518 79.0509 12.546 66.7725C 7.13999 54.9312 5.18888 40.8496 4.55606 25.0305C 17.8296 20.4058 29.606 13.3899 41.0007 5.76656C 52.3954 13.39 64.1704 20.4059 77.4453 25.0305C 76.8112 40.8496 74.8614 54.9312 69.4554 66.7725C 63.8494 79.0509 54.1374 85.0903 41.0007 94.5104L 41.0006 94.5104Z"/>
</defs>
</svg>
